<svg width="20" height="20" viewBox="0 0 20 20" fill="none" xmlns="http://www.w3.org/2000/svg">
<g clip-path="url(#clip0_264_19687)">
<path d="M9.84375 0.799805C10.4846 0.799805 11.1195 0.921394 11.7119 1.1582C12.3042 1.39497 12.8428 1.74255 13.2969 2.18066C13.751 2.61897 14.1122 3.14025 14.3584 3.71387C14.6045 4.28734 14.7314 4.90228 14.7314 5.52344V7.13379H15.4688C16.0168 7.13379 16.544 7.3437 16.9336 7.71973C17.3233 8.09591 17.5439 8.60748 17.5439 9.14258V18.1904C17.5439 18.7257 17.3235 19.238 16.9336 19.6143C16.544 19.9902 16.0168 20.2002 15.4688 20.2002H4.21875C3.67073 20.2002 3.14353 19.9902 2.75391 19.6143C2.36403 19.238 2.14355 18.7257 2.14355 18.1904V9.14258C2.14371 8.02133 3.07453 7.1338 4.21875 7.13379H4.95605V5.52344C4.95616 4.2684 5.47339 3.06587 6.39062 2.18066C7.30767 1.29583 8.54994 0.799809 9.84375 0.799805ZM15.4688 20C15.5264 20 15.5837 19.9963 15.6406 19.9912C15.5837 19.9963 15.5264 20 15.4688 20ZM15.7148 19.9814C15.7469 19.9773 15.7788 19.9735 15.8105 19.9678C15.7788 19.9735 15.7469 19.9773 15.7148 19.9814ZM15.8906 19.9512C15.9201 19.9446 15.9494 19.9376 15.9785 19.9297C15.9494 19.9376 15.9201 19.9446 15.8906 19.9512ZM16.0576 19.9062C16.0866 19.897 16.1151 19.8866 16.1436 19.876C16.1151 19.8866 16.0866 19.897 16.0576 19.9062ZM16.2158 19.8486C16.2459 19.836 16.2753 19.8218 16.3047 19.8076C16.2753 19.8218 16.246 19.836 16.2158 19.8486ZM16.3721 19.7744C16.4037 19.7576 16.4343 19.7393 16.4648 19.7207C16.4342 19.7393 16.4037 19.7576 16.3721 19.7744ZM17.0869 19.1006C17.0372 19.1829 16.9821 19.2626 16.9189 19.3369C16.9821 19.2626 17.0372 19.183 17.0869 19.1006ZM2.59961 19.1006C2.64336 19.1731 2.69292 19.2422 2.74707 19.3086C2.69291 19.2422 2.64336 19.1731 2.59961 19.1006ZM4.41895 17.9902H15.2686V9.34277H4.41895V17.9902ZM9.84375 11.6572C10.3918 11.6572 10.919 11.8671 11.3086 12.2432C11.6985 12.6194 11.9189 13.1317 11.9189 13.667C11.9189 14.2021 11.6983 14.7137 11.3086 15.0898C10.919 15.4659 10.3918 15.6758 9.84375 15.6758C9.29568 15.6758 8.76854 15.4659 8.37891 15.0898C7.98923 14.7137 7.76864 14.2021 7.76855 13.667C7.76855 12.5456 8.69944 11.6572 9.84375 11.6572ZM9.84375 15.4766C9.9014 15.4766 9.95869 15.4728 10.0156 15.4678C9.9587 15.4728 9.90139 15.4766 9.84375 15.4766ZM10.0898 15.458C10.1219 15.4539 10.1538 15.45 10.1855 15.4443C10.1538 15.45 10.1219 15.4539 10.0898 15.458ZM9.30957 15.4004C9.35112 15.4123 9.39314 15.4225 9.43555 15.4316C9.39315 15.4225 9.35112 15.4123 9.30957 15.4004ZM10.2656 15.4277C10.2948 15.4212 10.3237 15.4141 10.3525 15.4062C10.3237 15.4141 10.2948 15.4212 10.2656 15.4277ZM9.15039 15.3467C9.19055 15.3621 9.23126 15.3759 9.27246 15.3887C9.23126 15.3759 9.19055 15.3621 9.15039 15.3467ZM10.4375 15.3809C10.4627 15.3727 10.4879 15.3646 10.5127 15.3555C10.4879 15.3646 10.4627 15.3727 10.4375 15.3809ZM10.5898 15.3252C10.6279 15.3092 10.6652 15.2918 10.7021 15.2734C10.6652 15.2918 10.6279 15.3092 10.5898 15.3252ZM8.9873 15.2744C9.02203 15.2916 9.05703 15.3081 9.09277 15.3232C9.05703 15.3082 9.02203 15.2916 8.9873 15.2744ZM10.8838 15.1719C10.8358 15.2028 10.7859 15.2304 10.7354 15.2568C10.8397 15.2023 10.9396 15.1396 11.0322 15.0664L10.8838 15.1719ZM8.82812 15.1855C8.86495 15.2085 8.90212 15.2306 8.94043 15.251C8.90213 15.2306 8.86495 15.2085 8.82812 15.1855ZM8.67676 15.0811C8.71459 15.1101 8.75311 15.138 8.79297 15.1641C8.75312 15.138 8.71458 15.1101 8.67676 15.0811ZM8.39746 14.8174C8.43542 14.8618 8.47504 14.9052 8.51758 14.9463C8.5597 14.9869 8.60386 15.0252 8.64941 15.0615C8.60393 15.0252 8.55966 14.9869 8.51758 14.9463C8.47504 14.9052 8.43541 14.8618 8.39746 14.8174ZM11.1699 14.9463L11.2793 14.8311C11.283 14.8268 11.2854 14.8216 11.2891 14.8174C11.2512 14.8616 11.2123 14.9054 11.1699 14.9463ZM8.29297 14.6826C8.31749 14.7175 8.344 14.7509 8.37109 14.7842C8.344 14.7509 8.31748 14.7175 8.29297 14.6826ZM11.3164 14.7842C11.3434 14.7511 11.3691 14.7173 11.3936 14.6826C11.3691 14.7173 11.3434 14.7511 11.3164 14.7842ZM8.2002 14.5361C8.22118 14.5731 8.24391 14.609 8.26758 14.6445C8.24392 14.609 8.22118 14.5731 8.2002 14.5361ZM11.4189 14.6445C11.4426 14.609 11.4653 14.5731 11.4863 14.5361C11.4653 14.5731 11.4426 14.609 11.4189 14.6445ZM8.12598 14.3887C8.14161 14.4233 8.15792 14.4576 8.17578 14.4912C8.15793 14.4576 8.1416 14.4233 8.12598 14.3887ZM11.5107 14.4912C11.5286 14.4576 11.5449 14.4233 11.5605 14.3887C11.5449 14.4233 11.5286 14.4576 11.5107 14.4912ZM8.06348 14.2314C8.07548 14.2667 8.08833 14.3015 8.10254 14.3359C8.08834 14.3015 8.07547 14.2667 8.06348 14.2314ZM11.584 14.3359C11.5982 14.3015 11.611 14.2667 11.623 14.2314C11.611 14.2667 11.5982 14.3015 11.584 14.3359ZM8.00879 14.0391C8.01849 14.0836 8.03083 14.1273 8.04395 14.1709C8.03084 14.1273 8.01849 14.0836 8.00879 14.0391ZM11.7188 13.667L11.7119 13.5107C11.7116 13.5075 11.7103 13.5043 11.71 13.501C11.7152 13.5559 11.7188 13.6114 11.7188 13.667ZM11.6982 13.417C11.6946 13.3915 11.6913 13.3661 11.6865 13.3408C11.6913 13.3661 11.6946 13.3915 11.6982 13.417ZM11.667 13.2539C11.6601 13.2257 11.6528 13.1977 11.6445 13.1699C11.6528 13.1977 11.6601 13.2257 11.667 13.2539ZM11.626 13.1094C11.6137 13.0728 11.6006 13.0367 11.5859 13.001C11.6006 13.0367 11.6137 13.0728 11.626 13.1094ZM11.5654 12.9531C11.5503 12.9191 11.5339 12.8856 11.5166 12.8525C11.5339 12.8856 11.5503 12.9191 11.5654 12.9531ZM11.4863 12.7959C11.4658 12.7598 11.443 12.7251 11.4199 12.6904C11.443 12.7251 11.4658 12.7598 11.4863 12.7959ZM11.3984 12.6572C11.3656 12.6101 11.3314 12.5637 11.2939 12.5195C11.3314 12.5637 11.3656 12.6101 11.3984 12.6572ZM11.1699 12.3867L11.0498 12.2812C11.0478 12.2796 11.0459 12.278 11.0439 12.2764C11.0874 12.3113 11.1296 12.3478 11.1699 12.3867ZM10.9922 12.2373C10.9599 12.2132 10.9272 12.1899 10.8936 12.168C10.9272 12.1899 10.96 12.2132 10.9922 12.2373ZM10.8584 12.1465C10.8215 12.1236 10.7844 12.1013 10.7461 12.0811C10.7844 12.1014 10.8216 12.1236 10.8584 12.1465ZM10.7021 12.0586C10.6638 12.0396 10.6246 12.0223 10.585 12.0059C10.6246 12.0223 10.6638 12.0395 10.7021 12.0586ZM10.54 11.9873C10.4987 11.9714 10.4566 11.9574 10.4141 11.9443C10.4565 11.9574 10.4987 11.9713 10.54 11.9873ZM10.377 11.9326C10.3354 11.9207 10.2934 11.9105 10.251 11.9014C10.2934 11.9105 10.3354 11.9207 10.377 11.9326ZM17.3438 9.14258C17.3437 9.08689 17.3402 9.03156 17.335 8.97656C17.3402 9.03156 17.3437 9.08689 17.3438 9.14258ZM17.3232 8.8916C17.3196 8.86676 17.3162 8.842 17.3115 8.81738C17.3162 8.842 17.3196 8.86676 17.3232 8.8916ZM17.292 8.72852C17.2857 8.70293 17.2789 8.6776 17.2715 8.65234C17.2789 8.67761 17.2857 8.70293 17.292 8.72852ZM17.2451 8.56934C17.2362 8.54372 17.2269 8.51836 17.2168 8.49316C17.2269 8.51836 17.2362 8.54372 17.2451 8.56934ZM17.1865 8.42188C17.1727 8.39121 17.1582 8.36095 17.1426 8.33105C17.1581 8.36095 17.1727 8.39121 17.1865 8.42188ZM17.1113 8.27148C17.0917 8.23708 17.0698 8.20407 17.0479 8.1709C17.0698 8.20408 17.0917 8.23707 17.1113 8.27148ZM16.0137 7.41113H16.0146H16.0137ZM9.84375 3.00977C9.14878 3.00977 8.48354 3.2759 7.99414 3.74805C7.50504 4.22007 7.23155 4.85908 7.23145 5.52344V7.13379H12.4561V5.52344C12.456 4.85908 12.1825 4.22007 11.6934 3.74805C11.204 3.2759 10.5387 3.00977 9.84375 3.00977ZM5.16602 5.24121C5.15994 5.33491 5.15626 5.429 5.15625 5.52344C5.15626 5.429 5.15994 5.33491 5.16602 5.24121ZM14.5107 5.10449C14.5242 5.24353 14.5312 5.38331 14.5312 5.52344C14.5312 5.38331 14.5241 5.24354 14.5107 5.10449ZM14.499 5.00977C14.4946 4.97198 14.4908 4.93413 14.4854 4.89648C14.4908 4.93413 14.4945 4.97198 14.499 5.00977ZM12.4414 4.48535C12.4895 4.59723 12.5274 4.71277 12.5596 4.83008C12.5274 4.71275 12.4894 4.59724 12.4414 4.48535ZM14.4688 4.79395C14.463 4.75969 14.4568 4.72552 14.4502 4.69141C14.4568 4.72552 14.4629 4.75969 14.4688 4.79395ZM5.24121 4.66797C5.23577 4.6952 5.23148 4.72265 5.22656 4.75C5.23148 4.72265 5.23577 4.6952 5.24121 4.66797ZM14.3867 4.41406C14.3501 4.27441 14.3082 4.13595 14.2578 4L14.3291 4.21094C14.3502 4.27816 14.3689 4.34602 14.3867 4.41406ZM5.28711 4.46387C5.28072 4.48945 5.27546 4.51531 5.26953 4.54102C5.27546 4.51531 5.28072 4.48945 5.28711 4.46387ZM5.34277 4.26172C5.33487 4.28797 5.32772 4.31443 5.32031 4.34082C5.32772 4.31443 5.33487 4.28797 5.34277 4.26172ZM5.40723 4.06445C5.40102 4.08203 5.39465 4.09954 5.38867 4.11719C5.39465 4.09954 5.40102 4.08203 5.40723 4.06445ZM12.0186 3.80371H12.0195H12.0186ZM5.49121 3.84668C5.47942 3.87518 5.46822 3.90389 5.45703 3.93262C5.46822 3.90389 5.47942 3.87518 5.49121 3.84668ZM14.0576 3.54492C14.0347 3.49942 14.0118 3.45388 13.9873 3.40918C14.0118 3.45388 14.0347 3.49941 14.0576 3.54492ZM5.5752 3.65527C5.56162 3.68415 5.5481 3.71304 5.53516 3.74219C5.5481 3.71304 5.56162 3.68415 5.5752 3.65527ZM5.66406 3.47656C5.6524 3.49874 5.64018 3.52062 5.62891 3.54297C5.64018 3.52062 5.6524 3.49874 5.66406 3.47656ZM8.2832 3.26562C8.20693 3.31472 8.13287 3.36743 8.06152 3.42383C8.13286 3.36742 8.20694 3.31473 8.2832 3.26562ZM13.9561 3.35449C13.927 3.3032 13.8973 3.25228 13.8662 3.20215C13.8973 3.25229 13.927 3.30319 13.9561 3.35449ZM5.78125 3.26953C5.76644 3.29439 5.75064 3.31864 5.73633 3.34375C5.75064 3.31864 5.76644 3.29439 5.78125 3.26953ZM13.835 3.15332C13.8121 3.11747 13.7885 3.08209 13.7646 3.04688C13.7885 3.08209 13.8121 3.11747 13.835 3.15332ZM6.0293 2.89648C6.00659 2.92719 5.98281 2.95708 5.96094 2.98828C5.98281 2.95708 6.00659 2.92719 6.0293 2.89648ZM13.7188 2.97949C13.6967 2.94827 13.6742 2.91741 13.6514 2.88672C13.6742 2.91741 13.6967 2.94826 13.7188 2.97949ZM6.16699 2.71875C6.18383 2.6982 6.20055 2.67752 6.21777 2.65723L6.22754 2.64551C6.20693 2.66962 6.18704 2.69427 6.16699 2.71875ZM12.998 2.17871C13.0524 2.22644 13.1061 2.27494 13.1582 2.3252L13.0127 2.19043C13.008 2.18629 13.0027 2.18283 12.998 2.17871ZM12.9414 2.12988C12.911 2.10399 12.8807 2.07784 12.8496 2.05273C12.8807 2.07783 12.9109 2.10399 12.9414 2.12988ZM12.7539 1.97852C12.7264 1.95747 12.6989 1.93645 12.6709 1.91602C12.6989 1.93644 12.7264 1.95748 12.7539 1.97852ZM12.5908 1.85938C12.5557 1.83482 12.5202 1.81071 12.4844 1.78711C12.5202 1.8107 12.5557 1.83483 12.5908 1.85938ZM12.4199 1.74512C12.3774 1.71809 12.3344 1.69169 12.291 1.66602C12.3345 1.69168 12.3774 1.71811 12.4199 1.74512ZM12.2393 1.63477C12.1941 1.60883 12.1477 1.58501 12.1016 1.56055C12.1477 1.58501 12.1941 1.60884 12.2393 1.63477ZM10.7588 1.08691C10.8337 1.10131 10.9083 1.11782 10.9824 1.13574C10.9083 1.1178 10.8337 1.10133 10.7588 1.08691ZM7.97754 13.8457L8 14C8.00108 14.0056 8.00277 14.011 8.00391 14.0166C7.99239 13.9602 7.98346 13.9032 7.97754 13.8457ZM11.6426 14.1709C11.6555 14.128 11.6671 14.0848 11.6768 14.041C11.6671 14.0848 11.6555 14.128 11.6426 14.1709ZM5.20703 4.85938C5.19766 4.92029 5.19039 4.98157 5.18359 5.04297C5.19039 4.98157 5.19766 4.92029 5.20703 4.85938ZM5.17871 5.08008C5.17325 5.13361 5.16951 5.18737 5.16602 5.24121C5.16951 5.18737 5.17325 5.13361 5.17871 5.08008ZM14.4307 4.5957C14.4198 4.5457 14.4081 4.49592 14.3955 4.44629C14.4081 4.49591 14.4198 4.54571 14.4307 4.5957ZM14.1748 3.79297L14.0938 3.61426C14.0904 3.60731 14.0864 3.60068 14.083 3.59375C14.115 3.65929 14.146 3.72588 14.1748 3.79297ZM6.16699 2.71875C6.13995 2.75176 6.11294 2.7847 6.08691 2.81836C6.11294 2.7847 6.13995 2.75176 6.16699 2.71875Z" />
</g>
<defs>
<clipPath id="clip0_264_19687">
<rect width="20" height="20" />
</clipPath>
</defs>
</svg>
