<svg width="20" height="20" viewBox="0 0 20 20" fill="none" xmlns="http://www.w3.org/2000/svg">
<g clip-path="url(#clip0_271_34392)">
<path d="M4 19C3.71667 19 3.47933 18.904 3.288 18.712C3.09667 18.52 3.00067 18.2827 3 18C2.99933 17.7173 3.09533 17.48 3.288 17.288C3.48067 17.096 3.718 17 4 17H16C16.2833 17 16.521 17.096 16.713 17.288C16.905 17.48 17.0007 17.7173 17 18C16.9993 18.2827 16.9033 18.5203 16.712 18.713C16.5207 18.9057 16.2833 19.0013 16 19H4ZM4.7 15.5C4.21667 15.5 3.78767 15.3417 3.413 15.025C3.03833 14.7083 2.809 14.3083 2.725 13.825L1.725 7.475C1.69167 7.475 1.65433 7.47933 1.613 7.488C1.57167 7.49666 1.534 7.50066 1.5 7.5C1.08333 7.5 0.729335 7.35433 0.438002 7.063C0.146669 6.77166 0.000668939 6.41733 2.27273e-06 6C-0.000664394 5.58267 0.145335 5.22867 0.438002 4.938C0.730668 4.64733 1.08467 4.50133 1.5 4.5C1.91533 4.49867 2.26967 4.64467 2.563 4.938C2.85633 5.23133 3.002 5.58533 3 6C3 6.11666 2.98733 6.225 2.962 6.325C2.93667 6.425 2.90767 6.51666 2.875 6.6L6 8L9.125 3.725C8.94166 3.59167 8.79166 3.41667 8.675 3.2C8.55833 2.98333 8.5 2.75 8.5 2.5C8.5 2.08333 8.646 1.729 8.938 1.437C9.23 1.145 9.584 0.999336 10 1C10.416 1.00067 10.7703 1.14667 11.063 1.438C11.3557 1.72933 11.5013 2.08333 11.5 2.5C11.5 2.75 11.4417 2.98333 11.325 3.2C11.2083 3.41667 11.0583 3.59167 10.875 3.725L14 8L17.125 6.6C17.0917 6.51666 17.0623 6.425 17.037 6.325C17.0117 6.225 16.9993 6.11666 17 6C17 5.58333 17.146 5.229 17.438 4.937C17.73 4.645 18.084 4.49933 18.5 4.5C18.916 4.50067 19.2703 4.64667 19.563 4.938C19.8557 5.22933 20.0013 5.58333 20 6C19.9987 6.41666 19.853 6.771 19.563 7.063C19.273 7.355 18.9187 7.50066 18.5 7.5C18.4667 7.5 18.4293 7.496 18.388 7.488C18.3467 7.48 18.309 7.47566 18.275 7.475L17.275 13.825C17.1917 14.3083 16.9627 14.7083 16.588 15.025C16.2133 15.3417 15.784 15.5 15.3 15.5H4.7ZM4.7 13.5H15.3L15.95 9.325L14.8 9.82499C14.3667 10.0083 13.925 10.0417 13.475 9.92499C13.025 9.80833 12.6583 9.55833 12.375 9.175L10 5.9L7.625 9.175C7.34166 9.55833 6.975 9.80833 6.525 9.92499C6.075 10.0417 5.63333 10.0083 5.2 9.82499L4.05 9.325L4.7 13.5Z"/>
</g>
<defs>
<clipPath id="clip0_271_34392">
<rect width="20" height="20" fill="white"/>
</clipPath>
</defs>
</svg>
