<svg width="34" height="34" viewBox="0 0 34 34" fill="none" xmlns="http://www.w3.org/2000/svg">
<circle cx="17" cy="17" r="17" fill="#409EFF"/>
<path d="M10.125 12H8.875C8.70924 12 8.55027 11.9342 8.43306 11.817C8.31585 11.6998 8.25 11.5408 8.25 11.375C8.25 11.2093 8.31585 11.0503 8.43306 10.9331C8.55027 10.8159 8.70924 10.75 8.875 10.75H13.875V8.87378C13.875 8.70802 13.9408 8.54905 14.0581 8.43184C14.1753 8.31463 14.3342 8.24878 14.5 8.24878H19.5C19.6658 8.24878 19.8247 8.31463 19.9419 8.43184C20.0592 8.54905 20.125 8.70802 20.125 8.87378V10.75H25.125C25.2908 10.75 25.4497 10.8159 25.5669 10.9331C25.6842 11.0503 25.75 11.2093 25.75 11.375C25.75 11.5408 25.6842 11.6998 25.5669 11.817C25.4497 11.9342 25.2908 12 25.125 12H23.875V25.125C23.875 25.2908 23.8092 25.4498 23.6919 25.567C23.5747 25.6842 23.4158 25.75 23.25 25.75H10.75C10.5842 25.75 10.4253 25.6842 10.3081 25.567C10.1908 25.4498 10.125 25.2908 10.125 25.125V12ZM18.875 10.75V9.50003H15.125V10.75H18.875ZM11.375 24.5H22.625V12H11.375V24.5ZM15.125 22C14.9592 22 14.8003 21.9342 14.6831 21.817C14.5658 21.6998 14.5 21.5408 14.5 21.375V15.125C14.5 14.9593 14.5658 14.8003 14.6831 14.6831C14.8003 14.5659 14.9592 14.5 15.125 14.5C15.2908 14.5 15.4497 14.5659 15.5669 14.6831C15.6842 14.8003 15.75 14.9593 15.75 15.125V21.375C15.75 21.5408 15.6842 21.6998 15.5669 21.817C15.4497 21.9342 15.2908 22 15.125 22ZM18.875 22C18.7092 22 18.5503 21.9342 18.4331 21.817C18.3158 21.6998 18.25 21.5408 18.25 21.375V15.125C18.25 14.9593 18.3158 14.8003 18.4331 14.6831C18.5503 14.5659 18.7092 14.5 18.875 14.5C19.0408 14.5 19.1997 14.5659 19.3169 14.6831C19.4342 14.8003 19.5 14.9593 19.5 15.125V21.375C19.5 21.5408 19.4342 21.6998 19.3169 21.817C19.1997 21.9342 19.0408 22 18.875 22Z" fill="white"/>
</svg>
