<svg width="20" height="20" viewBox="0 0 20 20" xmlns="http://www.w3.org/2000/svg">
<path d="M14.5381 0.799805C14.841 0.799169 15.1043 0.906367 15.3145 1.11914C15.5242 1.33172 15.6282 1.59649 15.627 1.90039V2.59961H16.3164C16.8593 2.59972 17.3286 2.79855 17.7139 3.18848C18.0991 3.57849 18.2944 4.05261 18.2939 4.59961V17.2002C18.2939 17.7477 18.0994 18.2222 17.7148 18.6123C17.33 19.0026 16.8599 19.2007 16.3164 19.2002H3.87109C3.32817 19.2001 2.85842 19.0019 2.47363 18.6123C2.13708 18.2715 1.94633 17.8655 1.90332 17.4023L1.89355 17.2002V4.59961C1.89365 4.05206 2.08925 3.57799 2.47461 3.18848C2.85986 2.79918 3.32878 2.60032 3.87109 2.59961H4.56055V1.90039C4.56055 1.59572 4.66419 1.32991 4.87402 1.11816C5.08353 0.906774 5.34632 0.80062 5.64844 0.799805C5.95147 0.799081 6.21554 0.90628 6.42578 1.11914C6.6355 1.3317 6.73957 1.59654 6.73828 1.90039V2.59961H13.4492V1.90039C13.4492 1.5957 13.5538 1.32992 13.7637 1.11816C13.9732 0.906907 14.236 0.80053 14.5381 0.799805ZM16.3164 19L16.4746 18.9941C16.4785 18.9938 16.4824 18.9925 16.4863 18.9922C16.4307 18.997 16.374 19.0001 16.3164 19ZM3.37012 18.9297C3.47347 18.9597 3.58022 18.9818 3.69141 18.9922C3.58023 18.9818 3.47345 18.9597 3.37012 18.9297ZM16.5615 18.9824C16.5871 18.9791 16.6125 18.9761 16.6377 18.9717C16.6125 18.9761 16.5871 18.9791 16.5615 18.9824ZM16.7236 18.9541C16.7536 18.9473 16.7832 18.94 16.8125 18.9316C16.7832 18.94 16.7536 18.9473 16.7236 18.9541ZM16.8633 18.916C16.9 18.9042 16.936 18.8913 16.9717 18.877C16.936 18.8913 16.9 18.9042 16.8633 18.916ZM3.21484 18.876C3.24667 18.8888 3.27889 18.9003 3.31152 18.9111C3.27889 18.9003 3.24667 18.8888 3.21484 18.876ZM17.0146 18.8594C17.0508 18.8437 17.086 18.826 17.1211 18.8076C17.086 18.826 17.0508 18.8436 17.0146 18.8594ZM3.07227 18.8105C3.10091 18.8254 3.12983 18.8394 3.15918 18.8525C3.12982 18.8394 3.10092 18.8254 3.07227 18.8105ZM17.165 18.7842C17.1993 18.7649 17.2324 18.7436 17.2656 18.7217C17.2324 18.7436 17.1993 18.7649 17.165 18.7842ZM2.92578 18.7246C2.95346 18.7428 2.98137 18.76 3.00977 18.7764C2.98136 18.76 2.95346 18.7427 2.92578 18.7246ZM2.77148 18.6123C2.80509 18.6398 2.83924 18.6658 2.87402 18.6904C2.83924 18.6658 2.80509 18.6398 2.77148 18.6123ZM2.50098 18.3438C2.53713 18.3873 2.57522 18.4302 2.61621 18.4717C2.65772 18.5137 2.70062 18.5528 2.74414 18.5898C2.70066 18.5529 2.65769 18.5137 2.61621 18.4717C2.57522 18.4302 2.53714 18.3872 2.50098 18.3438ZM17.7188 18.3018C17.7446 18.2689 17.7698 18.2361 17.793 18.2021C17.7698 18.2361 17.7446 18.2689 17.7188 18.3018ZM2.40234 18.2139C2.42219 18.2425 2.44405 18.27 2.46582 18.2979C2.44404 18.27 2.4222 18.2425 2.40234 18.2139ZM17.8125 18.1709C17.8355 18.1355 17.8577 18.1 17.8779 18.0635C17.8577 18.1 17.8355 18.1355 17.8125 18.1709ZM2.30957 18.0635C2.3258 18.0929 2.34325 18.1217 2.36133 18.1504C2.34323 18.1217 2.32582 18.0929 2.30957 18.0635ZM2.24121 17.9258C2.25511 17.9575 2.27025 17.9886 2.28613 18.0195C2.27023 17.9886 2.25513 17.9575 2.24121 17.9258ZM17.9023 18.0166C17.9198 17.9825 17.9361 17.9482 17.9512 17.9131C17.9361 17.9481 17.9198 17.9825 17.9023 18.0166ZM17.9688 17.8721C17.9861 17.8285 18.0019 17.7843 18.0156 17.7393C18.0019 17.7843 17.9861 17.8285 17.9688 17.8721ZM2.18555 17.7783C2.19399 17.8039 2.20228 17.8294 2.21191 17.8545C2.20226 17.8294 2.19401 17.8039 2.18555 17.7783ZM18.0244 17.7061C18.0367 17.6623 18.0487 17.6183 18.0576 17.5732C18.0487 17.6183 18.0367 17.6623 18.0244 17.7061ZM2.1377 17.6055C2.14502 17.639 2.15289 17.6723 2.16211 17.7051C2.15288 17.6723 2.14504 17.639 2.1377 17.6055ZM2.12305 17.5371C2.12368 17.5407 2.12434 17.5443 2.125 17.5479C2.11506 17.4938 2.10771 17.4388 2.10254 17.3828L2.12305 17.5371ZM4.07129 17H16.1162V8.40039H4.07129V17ZM12.3164 10.7002C12.9908 10.7003 13.5683 10.9384 14.0361 11.4121C14.5039 11.8858 14.7383 12.4696 14.7383 13.1504C14.7382 13.8309 14.5037 14.4141 14.0361 14.8877C13.5683 15.3614 12.9908 15.5995 12.3164 15.5996C11.6418 15.5996 11.0636 15.3615 10.5957 14.8877C10.1281 14.4142 9.89364 13.8309 9.89355 13.1504C9.89356 12.4697 10.128 11.8858 10.5957 11.4121C11.0636 10.9383 11.6418 10.7002 12.3164 10.7002ZM11.8809 15.3613C11.9482 15.3737 12.0169 15.3833 12.0869 15.3896C12.0169 15.3833 11.9482 15.3737 11.8809 15.3613ZM11.6914 15.3164C11.7223 15.325 11.7537 15.3316 11.7852 15.3389C11.7537 15.3316 11.7223 15.325 11.6914 15.3164ZM11.498 15.252C11.5261 15.2628 11.5545 15.2726 11.583 15.2822C11.5544 15.2726 11.5261 15.2628 11.498 15.252ZM11.3154 15.1709C11.3438 15.1852 11.3724 15.1989 11.4014 15.2119C11.3724 15.1989 11.3438 15.1852 11.3154 15.1709ZM11.1436 15.0732C11.1695 15.0896 11.1952 15.106 11.2217 15.1211C11.1952 15.106 11.1695 15.0896 11.1436 15.0732ZM10.9756 14.9541C10.9994 14.9725 11.0225 14.9915 11.0469 15.0088C11.0225 14.9915 10.9994 14.9725 10.9756 14.9541ZM10.6045 14.5996C10.6466 14.6499 10.691 14.6992 10.7383 14.7471C10.7876 14.797 10.8388 14.8435 10.8906 14.8877C10.8388 14.8435 10.7876 14.797 10.7383 14.7471C10.691 14.6992 10.6466 14.6499 10.6045 14.5996ZM10.4785 14.4336C10.4916 14.4525 10.5058 14.4707 10.5195 14.4893C10.5058 14.4706 10.4916 14.4525 10.4785 14.4336ZM14.1113 14.4893C14.1251 14.4707 14.1392 14.4525 14.1523 14.4336C14.1393 14.4525 14.1251 14.4706 14.1113 14.4893ZM10.3662 14.251C10.3827 14.2807 10.4 14.3098 10.418 14.3389C10.4 14.3098 10.3826 14.2807 10.3662 14.251ZM14.2129 14.3389C14.2308 14.3098 14.2482 14.2807 14.2646 14.251C14.2482 14.2807 14.2308 14.3098 14.2129 14.3389ZM10.2725 14.0605C10.2886 14.0982 10.3059 14.1352 10.3242 14.1719C10.3059 14.1352 10.2886 14.0982 10.2725 14.0605ZM14.3066 14.1719C14.325 14.1352 14.3423 14.0982 14.3584 14.0605C14.3423 14.0982 14.3249 14.1352 14.3066 14.1719ZM10.1963 13.8525C10.211 13.9002 10.2272 13.947 10.2451 13.9932C10.2273 13.947 10.211 13.9002 10.1963 13.8525ZM14.3857 13.9932C14.4037 13.947 14.4199 13.9002 14.4346 13.8525C14.4199 13.9002 14.4036 13.947 14.3857 13.9932ZM10.1455 13.6553C10.1556 13.7035 10.1666 13.751 10.1797 13.7979C10.1666 13.751 10.1556 13.7035 10.1455 13.6553ZM14.4512 13.7979C14.4643 13.751 14.4753 13.7035 14.4854 13.6553C14.4753 13.7035 14.4643 13.751 14.4512 13.7979ZM10.1289 13.5771C10.1297 13.5817 10.131 13.5862 10.1318 13.5908C10.1196 13.5225 10.1098 13.4529 10.1035 13.3818L10.1289 13.5771ZM14.5381 13.1504L14.5303 12.9473C14.53 12.944 14.5286 12.9408 14.5283 12.9375C14.534 13.0071 14.5381 13.0782 14.5381 13.1504ZM10.1279 12.7314C10.1228 12.7621 10.1192 12.7931 10.1152 12.8242C10.1192 12.7931 10.1228 12.7621 10.1279 12.7314ZM14.5156 12.8242C14.5116 12.7931 14.5081 12.7621 14.5029 12.7314C14.5081 12.7621 14.5116 12.7931 14.5156 12.8242ZM10.1768 12.5137C10.1662 12.5523 10.1569 12.5913 10.1484 12.6309C10.1569 12.5913 10.1662 12.5523 10.1768 12.5137ZM14.4824 12.6309C14.4739 12.5913 14.4646 12.5523 14.4541 12.5137C14.4647 12.5523 14.4739 12.5913 14.4824 12.6309ZM10.2422 12.3125C10.2254 12.3564 10.2102 12.401 10.1963 12.4463C10.2102 12.4011 10.2254 12.3564 10.2422 12.3125ZM14.4346 12.4463C14.4206 12.401 14.4055 12.3565 14.3887 12.3125C14.4055 12.3564 14.4206 12.401 14.4346 12.4463ZM10.3291 12.1172C10.3069 12.1612 10.2857 12.2055 10.2666 12.251C10.2857 12.2056 10.3069 12.1612 10.3291 12.1172ZM14.3643 12.251C14.3452 12.2055 14.324 12.1612 14.3018 12.1172C14.324 12.1612 14.3452 12.2055 14.3643 12.251ZM10.4355 11.9307C10.4066 11.9759 10.3788 12.0214 10.3535 12.0684C10.3788 12.0215 10.4066 11.9759 10.4355 11.9307ZM14.2773 12.0684C14.2521 12.0214 14.2243 11.9759 14.1953 11.9307C14.2243 11.9759 14.2521 12.0215 14.2773 12.0684ZM10.5869 11.7197C10.5422 11.7743 10.5005 11.8303 10.4619 11.8877C10.5005 11.8303 10.5422 11.7743 10.5869 11.7197ZM13.8936 11.5527L13.749 11.418C13.7478 11.4169 13.7464 11.4161 13.7451 11.415C13.7957 11.4583 13.8454 11.504 13.8936 11.5527ZM13.6396 11.332C13.6216 11.3184 13.6042 11.304 13.5859 11.291C13.6043 11.304 13.6216 11.3184 13.6396 11.332ZM13.4941 11.2305C13.4624 11.2103 13.431 11.1902 13.3984 11.1719C13.431 11.1902 13.4624 11.2103 13.4941 11.2305ZM13.333 11.1377C13.2932 11.1171 13.2529 11.098 13.2119 11.0801C13.2529 11.098 13.2932 11.1171 13.333 11.1377ZM13.1475 11.0527C13.1064 11.0365 13.0646 11.0224 13.0225 11.0088C13.0646 11.0224 13.1064 11.0365 13.1475 11.0527ZM12.9502 10.9854C12.9097 10.9739 12.8687 10.9642 12.8271 10.9551C12.8687 10.9642 12.9097 10.9739 12.9502 10.9854ZM4.07129 6.2002H16.1162V4.7998H4.07129V6.2002ZM18.0938 4.59961C18.0938 4.54098 18.0908 4.4834 18.0859 4.42676C18.0908 4.4834 18.0938 4.54098 18.0938 4.59961ZM18.0801 4.37988C18.0755 4.339 18.0706 4.29861 18.0635 4.25879C18.0706 4.29861 18.0755 4.339 18.0801 4.37988ZM18.0518 4.20312C18.044 4.16684 18.0353 4.13109 18.0254 4.0957C18.0353 4.13109 18.044 4.16684 18.0518 4.20312ZM18.0088 4.04102C17.9986 4.00903 17.9876 3.97751 17.9756 3.94629C17.9876 3.97752 17.9986 4.00903 18.0088 4.04102ZM17.9512 3.88379C17.9389 3.85533 17.925 3.82761 17.9111 3.7998C17.925 3.82762 17.9389 3.85533 17.9512 3.88379ZM17.8779 3.73438C17.8621 3.70587 17.8447 3.67819 17.8271 3.65039C17.8447 3.67819 17.8621 3.70587 17.8779 3.73438ZM17.5723 3.3291L17.4551 3.21973C17.4532 3.21806 17.4511 3.2165 17.4492 3.21484C17.491 3.25067 17.5323 3.28863 17.5723 3.3291ZM17.3975 3.17383C17.3694 3.15147 17.3414 3.12972 17.3125 3.10938C17.3413 3.12973 17.3694 3.15146 17.3975 3.17383ZM17.2559 3.07227C17.2299 3.05546 17.2043 3.03867 17.1777 3.02344C17.2043 3.03869 17.23 3.05544 17.2559 3.07227ZM17.1123 2.98828C17.0865 2.97495 17.0606 2.96209 17.0342 2.9502C17.0606 2.96211 17.0865 2.97493 17.1123 2.98828ZM16.9648 2.9209C16.9416 2.91167 16.9182 2.90269 16.8945 2.89453C16.9182 2.9027 16.9416 2.91165 16.9648 2.9209ZM16.8027 2.86523C16.7853 2.86037 16.7676 2.85685 16.75 2.85254C16.7676 2.85686 16.7853 2.86036 16.8027 2.86523ZM4.77441 1.73047C4.77302 1.73888 4.77169 1.74734 4.77051 1.75586C4.77169 1.74734 4.77301 1.73888 4.77441 1.73047ZM6.52734 1.75586C6.52618 1.74733 6.52482 1.7389 6.52344 1.73047C6.52483 1.7389 6.52618 1.74732 6.52734 1.75586ZM6.49316 1.60352C6.49023 1.59437 6.4876 1.58518 6.48438 1.57617C6.48761 1.58518 6.49022 1.59437 6.49316 1.60352ZM4.81543 1.57617C4.81251 1.58431 4.80932 1.59234 4.80664 1.60059C4.80933 1.59234 4.8125 1.58431 4.81543 1.57617ZM15.3281 1.47168C15.3288 1.47297 15.3294 1.47429 15.3301 1.47559C15.3162 1.44857 15.3011 1.42209 15.2842 1.39648L15.3281 1.47168ZM6.43457 1.46289C6.4294 1.45325 6.42353 1.44402 6.41797 1.43457C6.42354 1.44402 6.42939 1.45326 6.43457 1.46289ZM4.87891 1.43848C4.87472 1.44568 4.87017 1.45265 4.86621 1.45996C4.87018 1.45265 4.87471 1.44567 4.87891 1.43848ZM6.18164 1.1709C6.17286 1.16429 6.16423 1.15759 6.15527 1.15137C6.16422 1.1576 6.17287 1.16428 6.18164 1.1709ZM6.04883 1.08887C6.03915 1.08409 6.02939 1.07958 6.01953 1.0752C6.02938 1.07959 6.03916 1.08408 6.04883 1.08887ZM5.89844 1.03223C5.89326 1.03083 5.88804 1.02962 5.88281 1.02832C5.88804 1.02963 5.89326 1.03083 5.89844 1.03223ZM17.5723 18.4717L17.6807 18.3535C17.685 18.3483 17.6881 18.3421 17.6924 18.3369C17.6547 18.3827 17.6152 18.4281 17.5723 18.4717Z"/>
</svg>
