<svg width="20" height="20" viewBox="0 0 20 20" xmlns="http://www.w3.org/2000/svg">
<path d="M16.25 12.5625V6.875C16.25 6.0462 15.9208 5.25134 15.3347 4.66529C14.7487 4.07924 13.9538 3.75 13.125 3.75H10.8875L12.3125 2.3125C12.5625 2.075 12.5625 1.675 12.3125 1.4375C12.075 1.1875 11.675 1.1875 11.4375 1.4375L8.9375 3.9375C8.6875 4.175 8.6875 4.575 8.9375 4.8125L11.4375 7.3125C11.675 7.5625 12.075 7.5625 12.3125 7.3125C12.5625 7.075 12.5625 6.675 12.3125 6.4375L10.8875 5H13.125C14.1625 5 15 5.8375 15 6.875V12.5625C14.2412 12.7174 13.567 13.1485 13.108 13.7722C12.649 14.396 12.438 15.168 12.5158 15.9385C12.5937 16.709 12.9548 17.4231 13.5293 17.9425C14.1037 18.4618 14.8506 18.7494 15.625 18.7494C16.3994 18.7494 17.1463 18.4618 17.7207 17.9425C18.2952 17.4231 18.6563 16.709 18.7342 15.9385C18.812 15.168 18.601 14.396 18.142 13.7722C17.683 13.1485 17.0088 12.7174 16.25 12.5625ZM15.625 17.5C14.5875 17.5 13.75 16.6625 13.75 15.625C13.75 14.5875 14.5875 13.75 15.625 13.75C16.6625 13.75 17.5 14.5875 17.5 15.625C17.5 16.6625 16.6625 17.5 15.625 17.5ZM7.5 4.375C7.49988 3.78373 7.33202 3.20463 7.01592 2.70495C6.69981 2.20527 6.24844 1.80553 5.71421 1.55214C5.17999 1.29875 4.58485 1.20212 3.9979 1.27347C3.41095 1.34482 2.85629 1.58123 2.39833 1.95522C1.94037 2.32922 1.59792 2.82547 1.41073 3.38633C1.22355 3.94718 1.19932 4.54964 1.34086 5.12371C1.4824 5.69779 1.7839 6.21993 2.21035 6.6295C2.63679 7.03907 3.17068 7.31925 3.75 7.4375V12.5637C2.325 12.8537 1.25 14.1163 1.25 15.625C1.25 17.3487 2.6525 18.75 4.375 18.75C6.0975 18.75 7.5 17.3487 7.5 15.625C7.5 14.115 6.425 12.8537 5 12.5637V7.4375C5.70585 7.29342 6.34025 6.90989 6.79582 6.35181C7.25139 5.79374 7.50015 5.09541 7.5 4.375ZM2.5 4.375C2.5 3.3375 3.3375 2.5 4.375 2.5C5.4125 2.5 6.25 3.3375 6.25 4.375C6.25 5.4125 5.4125 6.25 4.375 6.25C3.3375 6.25 2.5 5.4125 2.5 4.375ZM6.25 15.625C6.25 16.6588 5.40875 17.5 4.375 17.5C3.34125 17.5 2.5 16.6588 2.5 15.625C2.5 14.5912 3.34125 13.75 4.375 13.75C5.40875 13.75 6.25 14.5912 6.25 15.625Z" />
<path d="M7.5 4.375C7.49989 3.8576 7.37187 3.34922 7.12793 2.89551L7.01562 2.70508C6.69952 2.20542 6.24808 1.80514 5.71387 1.55176C5.1798 1.29855 4.58479 1.20215 3.99805 1.27344L3.7793 1.30762C3.27375 1.40578 2.7991 1.62791 2.39844 1.95508L2.23242 2.10157C1.85755 2.45476 1.57491 2.896 1.41113 3.38672L1.34863 3.59864C1.22055 4.09751 1.21698 4.62173 1.34082 5.12403C1.48239 5.69799 1.78359 6.22039 2.20996 6.62989C2.63641 7.03945 3.17068 7.31925 3.75 7.4375V12.5635C2.325 12.8535 1.25 14.1163 1.25 15.625C1.25 17.3488 2.6525 18.75 4.375 18.75C6.0975 18.75 7.5 17.3488 7.5 15.625C7.5 14.115 6.425 12.8535 5 12.5635V7.4375C5.61772 7.31141 6.18089 7.0021 6.61719 6.55274L6.7959 6.35157C7.25137 5.79353 7.50015 5.09533 7.5 4.375ZM14.5 6.875C14.5 6.11365 13.8864 5.5 13.125 5.5H12.0869L12.668 6.08594H12.667C13.1077 6.51586 13.1096 7.22322 12.6738 7.65625L12.6748 7.65723C12.672 7.66023 12.6679 7.66208 12.665 7.66504C12.6621 7.66792 12.6602 7.67196 12.6572 7.67481L12.6562 7.67383C12.2226 8.11029 11.5137 8.10775 11.084 7.66504V7.66602L8.58398 5.16602V5.16504C8.13929 4.73233 8.13897 4.0165 8.58398 3.58399L11.084 1.08399V1.08497C11.5137 0.642262 12.2226 0.639717 12.6562 1.07618L12.6572 1.0752C12.6601 1.0779 12.6622 1.08127 12.665 1.08399C12.6681 1.08712 12.6718 1.08961 12.6748 1.09278L12.6738 1.09375C13.1095 1.52663 13.1072 2.23312 12.667 2.66309L12.668 2.66407L12.0869 3.25H13.125V3.75H10.8877L12.3125 2.3125C12.5625 2.075 12.5625 1.675 12.3125 1.4375C12.075 1.1875 11.675 1.1875 11.4375 1.4375L8.9375 3.9375C8.6875 4.175 8.6875 4.575 8.9375 4.8125L11.4375 7.3125C11.675 7.5625 12.075 7.5625 12.3125 7.3125C12.5625 7.075 12.5625 6.675 12.3125 6.4375L10.8877 5H13.125C14.1625 5 15 5.8375 15 6.875V12.5625C14.2412 12.7174 13.5674 13.1487 13.1084 13.7725L12.9473 14.0127C12.6005 14.5888 12.4475 15.2643 12.5156 15.9385C12.5935 16.709 12.9549 17.423 13.5293 17.9424C14.1038 18.4617 14.8506 18.749 15.625 18.749C16.3994 18.749 17.1462 18.4617 17.7207 17.9424C18.2233 17.488 18.5623 16.8845 18.6914 16.2246L18.7344 15.9385C18.8025 15.2643 18.6495 14.5888 18.3027 14.0127L18.1416 13.7725C17.6826 13.1487 17.0088 12.7174 16.25 12.5625V6.875C16.25 6.09791 15.9606 5.35063 15.4414 4.77735L15.335 4.66504C14.7489 4.07899 13.9538 3.75 13.125 3.75V3.25C14.0864 3.25 15.0087 3.63171 15.6885 4.31153C16.3683 4.99135 16.75 5.9136 16.75 6.875V12.1797C17.4655 12.4133 18.0948 12.8639 18.5449 13.4756C19.0773 14.199 19.3216 15.0946 19.2314 15.9883C19.1412 16.8821 18.722 17.711 18.0557 18.3135C17.3893 18.9158 16.5232 19.249 15.625 19.249C14.7268 19.249 13.8607 18.9158 13.1943 18.3135C12.528 17.711 12.1088 16.8821 12.0186 15.9883C11.9284 15.0946 12.1727 14.199 12.7051 13.4756C13.1552 12.8639 13.7845 12.4133 14.5 12.1797V6.875ZM5.75 15.625C5.75 14.8674 5.13261 14.25 4.375 14.25C3.61739 14.25 3 14.8674 3 15.625C3 16.3826 3.61739 17 4.375 17V17.5C3.34125 17.5 2.5 16.6588 2.5 15.625C2.5 14.5913 3.34125 13.75 4.375 13.75C5.40875 13.75 6.25 14.5913 6.25 15.625C6.25 16.6588 5.40875 17.5 4.375 17.5V17C5.13261 17 5.75 16.3826 5.75 15.625ZM17 15.625C17 14.8636 16.3864 14.25 15.625 14.25C14.8636 14.25 14.25 14.8636 14.25 15.625C14.25 16.3864 14.8636 17 15.625 17V17.5C14.5875 17.5 13.75 16.6625 13.75 15.625C13.75 14.5875 14.5875 13.75 15.625 13.75C16.6625 13.75 17.5 14.5875 17.5 15.625C17.5 16.6625 16.6625 17.5 15.625 17.5V17C16.3864 17 17 16.3864 17 15.625ZM5.75 4.375C5.75 3.61365 5.13636 3 4.375 3C3.61364 3 3 3.61365 3 4.375C3 5.13636 3.61364 5.75 4.375 5.75V6.25C3.3375 6.25 2.5 5.4125 2.5 4.375C2.5 3.3375 3.3375 2.5 4.375 2.5C5.4125 2.5 6.25 3.3375 6.25 4.375C6.25 5.4125 5.4125 6.25 4.375 6.25V5.75C5.13636 5.75 5.75 5.13636 5.75 4.375ZM8 4.375C8.00015 5.21054 7.71191 6.02068 7.18359 6.66797C6.743 7.2077 6.1568 7.60375 5.5 7.81836V12.1816C6.94955 12.6556 8 14.017 8 15.625C8 17.625 6.37351 19.25 4.375 19.25C2.37649 19.25 0.75 17.625 0.75 15.625C0.75 14.0182 1.80036 12.6558 3.25 12.1816V7.81934C2.73334 7.65056 2.25885 7.36915 1.86426 6.99024C1.36958 6.51514 1.01966 5.9091 0.855469 5.24317C0.691374 4.57744 0.719538 3.87893 0.936523 3.22852C1.15363 2.57801 1.55091 2.00218 2.08203 1.56836C2.61324 1.13454 3.25667 0.860127 3.9375 0.777348C4.61836 0.694582 5.30901 0.806661 5.92871 1.10059C6.54826 1.39451 7.07185 1.858 7.43848 2.4375C7.80516 3.01713 7.99986 3.68913 8 4.375Z"/>
</svg>
