<svg width="20" height="20" viewBox="0 0 20 20" fill="none" xmlns="http://www.w3.org/2000/svg">
<path d="M3.33333 15.8333H6.66667V9.16667H3.33333V15.8333ZM8.33333 15.8333H11.6667V4.16667H8.33333V15.8333ZM13.3333 15.8333H16.6667V10.8333H13.3333V15.8333ZM1.66667 15.8333V9.16667C1.66667 8.70833 1.83 8.31611 2.15667 7.99C2.48333 7.66389 2.87556 7.50056 3.33333 7.5H6.66667V4.16667C6.66667 3.70833 6.83 3.31611 7.15667 2.99C7.48333 2.66389 7.87556 2.50056 8.33333 2.5H11.6667C12.125 2.5 12.5175 2.66333 12.8442 2.99C13.1708 3.31667 13.3339 3.70889 13.3333 4.16667V9.16667H16.6667C17.125 9.16667 17.5175 9.33 17.8442 9.65667C18.1708 9.98333 18.3339 10.3756 18.3333 10.8333V15.8333C18.3333 16.2917 18.1703 16.6842 17.8442 17.0108C17.5181 17.3375 17.1256 17.5006 16.6667 17.5H3.33333C2.875 17.5 2.48278 17.3369 2.15667 17.0108C1.83056 16.6847 1.66722 16.2922 1.66667 15.8333Z" fill="#409EFF"/>
</svg>
