<svg width="20" height="20" viewBox="0 0 20 20" fill="none" xmlns="http://www.w3.org/2000/svg">
<g clip-path="url(#clip0_259_4253)">
<path d="M17.5802 0H17.8127C19.0201 0 20 0.97998 20 2.18745V2.41995C19.9992 5.32039 18.8465 8.10176 16.7953 10.1523L16.2228 10.726C15.8295 11.1185 15.4216 11.4952 14.9992 11.856V15.8647C14.9992 16.6247 14.6054 17.3296 13.958 17.7271L10.4908 19.8608C10.3689 19.9359 10.2315 19.982 10.0891 19.9957C9.9466 20.0094 9.8029 19.9903 9.66897 19.9399C9.53504 19.8894 9.41444 19.809 9.31641 19.7047C9.21838 19.6005 9.14551 19.4751 9.10341 19.3384L7.91101 15.4609C7.84574 15.4148 7.78505 15.3624 7.72977 15.3047L4.69377 12.2697C4.63645 12.2144 4.58456 12.1537 4.53879 12.0885L0.661611 10.896C0.524837 10.8539 0.399518 10.781 0.295261 10.683C0.191004 10.585 0.110576 10.4644 0.0601421 10.3304C0.00970818 10.1965 -0.00939292 10.0528 0.0043029 9.91032C0.0179987 9.76786 0.0641278 9.63043 0.139155 9.50855L2.27648 6.04113C2.47218 5.723 2.74609 5.46029 3.07209 5.27802C3.39809 5.09575 3.76533 5 4.13882 4.9999H8.14349C8.50429 4.57657 8.88093 4.16866 9.27339 3.77617L9.84709 3.20368C11.898 1.15252 14.6797 0.000122218 17.5802 0ZM11.1732 4.52866H11.1707L10.5983 5.10114C9.64836 6.05112 8.80218 7.0986 8.07349 8.22608L6.19865 11.1223L8.87718 13.801L11.7732 11.926C12.9006 11.1973 13.948 10.351 14.8967 9.40106L15.4704 8.82857C16.3118 7.98693 16.9792 6.98779 17.4345 5.8882C17.8898 4.7886 18.1241 3.61009 18.1239 2.41995V2.18745C18.1239 2.10458 18.091 2.02509 18.0324 1.96649C17.9738 1.90788 17.8943 1.87496 17.8114 1.87496H17.579C15.1764 1.87531 12.8723 2.82983 11.1732 4.52866ZM4.45129 18.1996C3.53637 19.1146 1.53404 19.5058 0.695358 19.6346C0.650138 19.6423 0.603737 19.639 0.560032 19.6251C0.516327 19.6112 0.476586 19.587 0.444129 19.5546C0.411721 19.5221 0.387549 19.4824 0.373633 19.4387C0.359717 19.395 0.35646 19.3486 0.364136 19.3034C0.492875 18.4646 0.884092 16.4622 1.80152 15.5497C1.97115 15.3574 2.17837 15.2019 2.41041 15.0927C2.64245 14.9836 2.89438 14.9232 3.15067 14.9152C3.40696 14.9072 3.66217 14.9517 3.90057 15.0462C4.13897 15.1406 4.3555 15.2828 4.53682 15.4642C4.71813 15.6455 4.86038 15.862 4.95479 16.1004C5.0492 16.3389 5.09377 16.5941 5.08576 16.8504C5.07775 17.1067 5.01732 17.3586 4.9082 17.5907C4.79908 17.8227 4.64358 18.03 4.45129 18.1996ZM13.1256 13.281C13.0156 13.356 12.9048 13.4289 12.7931 13.4997L9.85584 15.4009L10.5408 17.6296L12.9768 16.1297C13.0223 16.1017 13.0598 16.0625 13.0859 16.0159C13.1119 15.9693 13.1256 15.9168 13.1256 15.8634V13.281ZM4.59878 10.1448L6.50112 7.20735C6.57362 7.09485 6.64694 6.98402 6.72111 6.87486H4.13757C4.08419 6.87484 4.03169 6.88851 3.98508 6.91455C3.93847 6.94059 3.89932 6.97813 3.87134 7.0236L2.37147 9.46105L4.59878 10.1448ZM15.0004 6.24987C15.0004 6.58138 14.8687 6.89932 14.6343 7.13374C14.3999 7.36815 14.082 7.49984 13.7505 7.49984C13.419 7.49984 13.1011 7.36815 12.8667 7.13374C12.6323 6.89932 12.5006 6.58138 12.5006 6.24987C12.5006 5.91836 12.6323 5.60042 12.8667 5.36601C13.1011 5.13159 13.419 4.9999 13.7505 4.9999C14.082 4.9999 14.3999 5.13159 14.6343 5.36601C14.8687 5.60042 15.0004 5.91836 15.0004 6.24987Z"/>
</g>
<defs>
<clipPath id="clip0_259_4253">
<rect width="20" height="20"/>
</clipPath>
</defs>
</svg>
