<svg width="16" height="16" viewBox="0 0 16 16" fill="none" xmlns="http://www.w3.org/2000/svg">
<path d="M8 1C11.866 1 15 4.13401 15 8C15 11.866 11.866 15 8 15C4.13402 15 1 11.866 1 8C1 4.13401 4.13402 1.00001 8 1ZM8 10.5137C7.80656 10.5137 7.6129 10.5864 7.46777 10.7314C7.33481 10.8765 7.25013 11.0582 7.25 11.2637C7.25 11.4572 7.32261 11.6517 7.46777 11.7969C7.6129 11.9298 7.80656 12.0137 8 12.0137C8.19343 12.0137 8.38709 11.9419 8.53223 11.7969C8.67739 11.6638 8.75 11.4693 8.75 11.2637C8.74988 11.0703 8.67727 10.8765 8.53223 10.7314C8.38709 10.5985 8.19344 10.5137 8 10.5137ZM7.99023 4C7.34031 4 6.71998 4.22974 6.25 4.63965C5.83 4.99965 5.57977 5.47047 5.50977 5.98047C5.50973 6.01128 5.50582 6.07535 5.50293 6.125C5.50109 6.15652 5.5 6.18269 5.5 6.19043C5.51008 6.31023 5.56 6.4201 5.62988 6.5C5.71988 6.6 5.85001 6.66992 6 6.66992C6.15 6.66992 6.31988 6.59977 6.37988 6.50977C6.44986 6.43966 6.5 6.10984 6.5 6.08984C6.60008 5.47991 7.23029 5.00977 7.99023 5.00977C8.82004 5.00986 9.49008 5.56993 9.49023 6.25977C9.49023 6.74972 9.14026 7.20036 8.61035 7.40039C8.28035 7.53039 7.9998 7.75004 7.7998 8.04004C7.5999 8.32997 7.49027 8.68992 7.49023 9.0498C7.49023 9.0498 7.46991 9.33998 7.58984 9.5C7.68984 9.62999 7.83001 9.71972 8 9.71973C8.17 9.71973 8.31016 9.62 8.41016 9.5C8.49863 9.3721 8.49998 9.04117 8.5 9.03027C8.5 8.88027 8.53988 8.72961 8.62988 8.59961C8.71987 8.47969 8.84054 8.38005 8.98047 8.33008C9.90026 7.97001 10.5005 7.15988 10.4805 6.25C10.4905 5.64004 10.2204 5.06964 9.73047 4.63965C9.26052 4.22969 8.64016 4.00005 7.99023 4Z" fill="#E6A23C"/>
</svg>
