<svg width="70" height="70" viewBox="0 0 70 70" fill="none" xmlns="http://www.w3.org/2000/svg">
<rect width="70" height="70" fill="#ECF5FF"/>
<path d="M33.54 35.432L41 23L57 53H15L29 27L33.54 35.432ZM35.78 39.476L40.974 49H50.334L40.794 31.116L35.78 39.476ZM21.696 49H36.304L29 35.438L21.696 49ZM22 27C20.6739 27 19.4021 26.4732 18.4645 25.5355C17.5268 24.5979 17 23.3261 17 22C17 20.6739 17.5268 19.4021 18.4645 18.4645C19.4021 17.5268 20.6739 17 22 17C23.3261 17 24.5979 17.5268 25.5355 18.4645C26.4732 19.4021 27 20.6739 27 22C27 23.3261 26.4732 24.5979 25.5355 25.5355C24.5979 26.4732 23.3261 27 22 27Z" fill="#9FCEFF"/>
</svg>
