<svg width="14" height="14" viewBox="0 0 14 14" fill="none" xmlns="http://www.w3.org/2000/svg">
<g clip-path="url(#clip0_427_6899)">
<path d="M7.00009 12.8333C7.76627 12.8342 8.52509 12.6838 9.23294 12.3906C9.9408 12.0974 10.5837 11.6672 11.1248 11.1247C11.6673 10.5836 12.0975 9.94068 12.3907 9.23282C12.6839 8.52496 12.8344 7.76615 12.8334 6.99996C12.8344 6.23378 12.6839 5.47496 12.3907 4.76711C12.0975 4.05925 11.6673 3.41631 11.1248 2.87521C10.5837 2.33276 9.9408 1.90257 9.23294 1.60936C8.52509 1.31614 7.76627 1.16569 7.00009 1.16663C6.2339 1.16569 5.47509 1.31614 4.76723 1.60936C4.05937 1.90257 3.41643 2.33276 2.87534 2.87521C2.33288 3.41631 1.90269 4.05925 1.60948 4.76711C1.31626 5.47496 1.16581 6.23378 1.16675 6.99996C1.16581 7.76615 1.31626 8.52496 1.60948 9.23282C1.90269 9.94068 2.33288 10.5836 2.87534 11.1247C3.41643 11.6672 4.05937 12.0974 4.76723 12.3906C5.47509 12.6838 6.2339 12.8342 7.00009 12.8333Z" stroke="#F10707" stroke-linejoin="round"/>
<path fill-rule="evenodd" clip-rule="evenodd" d="M7.00016 10.7916C7.19355 10.7916 7.37902 10.7148 7.51576 10.578C7.65251 10.4413 7.72933 10.2558 7.72933 10.0624C7.72933 9.86903 7.65251 9.68356 7.51576 9.54682C7.37902 9.41007 7.19355 9.33325 7.00016 9.33325C6.80678 9.33325 6.62131 9.41007 6.48456 9.54682C6.34782 9.68356 6.271 9.86903 6.271 10.0624C6.271 10.2558 6.34782 10.4413 6.48456 10.578C6.62131 10.7148 6.80678 10.7916 7.00016 10.7916Z" fill="#F10707"/>
<path d="M7 3.5V8.16667" stroke="#F10707" stroke-linecap="round" stroke-linejoin="round"/>
</g>
<defs>
<clipPath id="clip0_427_6899">
<rect width="14" height="14" fill="white"/>
</clipPath>
</defs>
</svg>
